<svg width="61" height="44" viewBox="0 0 61 44" fill="none" xmlns="http://www.w3.org/2000/svg">
<path id="Vector" d="M14.4378 44C12.1554 44 10.2153 43.1979 8.61758 41.5938C7.01987 39.9896 6.22102 38.0417 6.22102 35.75H0.743164V5.5C0.743164 3.9875 1.27954 2.69271 2.35228 1.61563C3.42503 0.538542 4.71461 0 6.22102 0H44.566V11H52.7828L60.9996 22V35.75H55.5217C55.5217 38.0417 54.7229 39.9896 53.1252 41.5938C51.5274 43.1979 49.5874 44 47.3049 44C45.0225 44 43.0824 43.1979 41.4847 41.5938C39.887 39.9896 39.0882 38.0417 39.0882 35.75H22.6546C22.6546 38.0417 21.8557 39.9896 20.258 41.5938C18.6603 43.1979 16.7202 44 14.4378 44ZM14.4378 38.5C15.2138 38.5 15.8643 38.2365 16.3893 37.7094C16.9142 37.1823 17.1767 36.5292 17.1767 35.75C17.1767 34.9708 16.9142 34.3177 16.3893 33.7906C15.8643 33.2635 15.2138 33 14.4378 33C13.6618 33 13.0113 33.2635 12.4863 33.7906C11.9614 34.3177 11.6989 34.9708 11.6989 35.75C11.6989 36.5292 11.9614 37.1823 12.4863 37.7094C13.0113 38.2365 13.6618 38.5 14.4378 38.5ZM6.22102 30.25H8.41216C9.18819 29.425 10.0783 28.7604 11.0826 28.2563C12.0869 27.7521 13.2053 27.5 14.4378 27.5C15.6703 27.5 16.7887 27.7521 17.793 28.2563C18.7973 28.7604 19.6874 29.425 20.4634 30.25H39.0882V5.5H6.22102V30.25ZM47.3049 38.5C48.081 38.5 48.7315 38.2365 49.2564 37.7094C49.7814 37.1823 50.0439 36.5292 50.0439 35.75C50.0439 34.9708 49.7814 34.3177 49.2564 33.7906C48.7315 33.2635 48.081 33 47.3049 33C46.5289 33 45.8784 33.2635 45.3534 33.7906C44.8285 34.3177 44.566 34.9708 44.566 35.75C44.566 36.5292 44.8285 37.1823 45.3534 37.7094C45.8784 38.2365 46.5289 38.5 47.3049 38.5ZM44.566 24.75H56.2064L50.0439 16.5H44.566V24.75Z" fill="#850E35"/>
</svg>
