<svg width="103" height="73" viewBox="0 0 103 73" fill="none" xmlns="http://www.w3.org/2000/svg">
<g id="mastercard_payment_method_icon_142750 1" clip-path="url(#clip0_323_8571)">
<g id="Group">
<path id="Vector" d="M19.1874 72.3299V67.5331C19.1874 65.6935 17.9653 64.4948 15.9593 64.4948C14.9057 64.4948 13.7784 64.8152 12.9925 65.846C12.3814 64.9658 11.5175 64.4948 10.2005 64.4948C9.71088 64.4754 9.22363 64.5675 8.78236 64.7629C8.3411 64.9583 7.95959 65.2508 7.67198 65.6144V64.6492H6.01367V72.3241H7.67198V67.9327C7.67198 66.5815 8.54433 65.9348 9.76646 65.9348C10.9886 65.9348 11.6861 66.6548 11.6861 67.9327V72.3299H13.3444V67.9327C13.3444 66.5815 14.2167 65.9348 15.4388 65.9348C16.661 65.9348 17.3584 66.6548 17.3584 67.9327V72.3299H19.1874ZM46.4157 64.7342H43.3604V62.4178H41.7063V64.7342H39.9616V66.0854H41.7063V69.6912C41.7063 71.4497 42.4037 72.4902 44.4982 72.4902C45.2917 72.475 46.0692 72.2829 46.7634 71.9304L46.2387 70.5791C45.7679 70.8487 45.2219 70.9875 44.6668 70.9787C43.7944 70.9787 43.3583 70.4981 43.3583 69.6989V66.0236H46.4136V64.7438L46.4157 64.7342ZM61.9494 64.4948C61.4978 64.4856 61.0512 64.5839 60.6534 64.7801C60.2556 64.9764 59.9202 65.2638 59.6801 65.6144V64.6492H58.0217V72.3241H59.6801V68.0138C59.6801 66.734 60.3775 65.9348 61.5133 65.9348C61.8965 65.9491 62.2768 66.0028 62.6469 66.095L63.1716 64.655C62.7714 64.5626 62.3618 64.5089 61.9494 64.4948ZM38.4739 65.2939C37.6016 64.7342 36.3795 64.4948 35.0709 64.4948C32.9765 64.4948 31.6679 65.375 31.6679 66.8942C31.6679 68.174 32.6288 68.892 34.4599 69.1333L35.3322 69.2125C36.2931 69.3727 36.9041 69.6931 36.9041 70.0927C36.9041 70.6525 36.2067 71.0579 34.896 71.0579C33.8953 71.0767 32.9151 70.7962 32.1041 70.2587L31.2318 71.4574C32.4539 72.2566 33.9373 72.4226 34.8139 72.4226C37.2581 72.4226 38.5667 71.3841 38.5667 69.9441C38.5667 68.5928 37.5131 67.9462 35.6862 67.7049L34.8139 67.6258C34.0279 67.5466 33.3389 67.3053 33.3389 66.8266C33.3389 66.2668 34.0363 65.8615 34.9972 65.8615C36.0507 65.8615 37.0917 66.261 37.6163 66.5004L38.4739 65.2939ZM63.7826 68.4925C63.7826 70.8089 65.4409 72.4902 68.1465 72.4902C69.3686 72.4902 70.241 72.2508 71.1133 71.6099L70.241 70.4112C69.6233 70.8694 68.8548 71.1231 68.0601 71.1312C66.5851 71.1312 65.4409 70.0927 65.4409 68.5735C65.4409 67.0544 66.5704 66.0236 68.0601 66.0236C68.8548 66.0317 69.6233 66.2854 70.241 66.7436L71.1133 65.5449C70.241 64.9059 69.3686 64.6647 68.1465 64.6647C65.5273 64.5044 63.7826 66.1838 63.7826 68.5021V68.4925ZM52.0881 64.4948C49.6438 64.4948 47.9855 66.0931 47.9855 68.4925C47.9855 70.8919 49.7302 72.4902 52.2609 72.4902C53.492 72.514 54.6943 72.1471 55.6639 71.4516L54.7915 70.3321C54.0903 70.8298 53.2341 71.1098 52.3473 71.1312C51.2136 71.1312 49.9915 70.4923 49.8187 69.1333H56.0158V68.4944C56.0158 66.095 54.4438 64.4967 52.0881 64.4967V64.4948ZM52.0017 65.9348C53.2238 65.9348 54.0962 66.6548 54.1826 67.8535H49.6459C49.9072 66.734 50.6995 65.9348 52.0017 65.9348ZM29.3986 68.4925V64.655H27.7402V65.6202C27.1292 64.9002 26.2653 64.5006 25.0347 64.5006C22.6789 64.5006 20.9321 66.18 20.9321 68.4983C20.9321 70.8166 22.6768 72.4959 25.0347 72.4959C26.2568 72.4959 27.1292 72.0964 27.7402 71.3764V72.3415H29.3986V68.4925ZM22.6789 68.4925C22.6789 67.0525 23.6398 65.9348 25.2981 65.9348C26.87 65.9348 27.8266 67.0544 27.8266 68.4925C27.8266 70.0116 26.7731 71.0501 25.2981 71.0501C23.6398 71.1293 22.6789 69.9306 22.6789 68.4925ZM87.1738 64.4948C86.7222 64.4856 86.2756 64.5839 85.8778 64.7801C85.48 64.9764 85.1447 65.2638 84.9045 65.6144V64.6492H83.2462V72.3241H84.9024V68.0138C84.9024 66.734 85.5998 65.9348 86.7356 65.9348C87.1188 65.9491 87.4991 66.0028 87.8692 66.095L88.3939 64.655C87.9937 64.5626 87.5841 64.5089 87.1717 64.4948H87.1738ZM80.7155 68.4925V64.655H79.0572V65.6202C78.4461 64.9002 77.5822 64.5006 76.3516 64.5006C73.9959 64.5006 72.2491 66.18 72.2491 68.4983C72.2491 70.8166 73.9938 72.4959 76.3516 72.4959C77.5738 72.4959 78.4461 72.0964 79.0572 71.3764V72.3415H80.7155V68.4925ZM73.9959 68.4925C73.9959 67.0525 74.9567 65.9348 76.615 65.9348C78.1869 65.9348 79.1436 67.0544 79.1436 68.4925C79.1436 70.0116 78.09 71.0501 76.615 71.0501C74.9567 71.1293 73.9959 69.9306 73.9959 68.4925ZM97.5599 68.4925V61.6167H95.9016V65.6144C95.2905 64.8944 94.4266 64.4948 93.196 64.4948C90.8402 64.4948 89.0934 66.1742 89.0934 68.4925C89.0934 70.8108 90.8381 72.4902 93.196 72.4902C94.4181 72.4902 95.2905 72.0906 95.9016 71.3706V72.3357H97.5599V68.4925ZM90.8402 68.4925C90.8402 67.0525 91.8011 65.9348 93.4594 65.9348C95.0313 65.9348 95.9879 67.0544 95.9879 68.4925C95.9879 70.0116 94.9344 71.0501 93.4594 71.0501C91.799 71.1312 90.8381 69.9325 90.8381 68.4925H90.8402Z" fill="black"/>
<g id="Group_2">
<path id="Vector_2" d="M66.8383 6.45215H36.5547V51.7026H66.8383V6.45215Z" fill="#FF5F00"/>
<path id="Vector_3" d="M39.6102 29.0774C39.6112 24.7243 40.6873 20.4278 42.7577 16.5096C44.8282 12.5914 47.8395 9.15314 51.566 6.45217C46.9315 3.11411 41.3653 1.03797 35.5037 0.461071C29.642 -0.115824 23.7214 0.829808 18.4187 3.18987C13.116 5.54993 8.64509 9.22919 5.51716 13.8071C2.38924 18.3849 0.730469 23.6767 0.730469 29.0774C0.730469 34.4781 2.38924 39.7698 5.51716 44.3477C8.64509 48.9256 13.116 52.6048 18.4187 54.9649C23.7214 57.325 29.642 58.2706 35.5037 57.6937C41.3653 57.1168 46.9315 55.0406 51.566 51.7026C47.8395 49.0016 44.8282 45.5633 42.7577 41.6452C40.6873 37.727 39.6112 33.4305 39.6102 29.0774Z" fill="#EB001B"/>
<path id="Vector_4" d="M102.447 29.0776C102.451 34.4743 100.797 39.7633 97.6744 44.3395C94.5516 48.9156 90.0859 52.5943 84.7881 54.9546C79.4903 57.315 73.5743 58.2618 67.7168 57.6867C61.8592 57.1117 56.2965 55.0379 51.665 51.7028C55.3925 49.0025 58.4044 45.5644 60.475 41.646C62.5456 37.7277 63.6212 33.4309 63.6212 29.0776C63.6212 24.7243 62.5456 20.4274 60.475 16.5091C58.4044 12.5908 55.3925 9.15262 51.665 6.45235C56.2965 3.11718 61.8592 1.04347 67.7168 0.468401C73.5743 -0.106666 79.4903 0.840128 84.7881 3.2005C90.0859 5.56086 94.5516 9.2395 97.6744 13.8157C100.797 18.3918 102.451 23.6808 102.447 29.0776Z" fill="#F79E1B"/>
</g>
</g>
</g>
<defs>
<clipPath id="clip0_323_8571">
<rect width="101.671" height="72.1937" fill="white" transform="translate(0.773438 0.296387)"/>
</clipPath>
</defs>
</svg>
