<svg width="50" height="47" viewBox="0 0 50 47" fill="none" xmlns="http://www.w3.org/2000/svg">
<path id="Vector" d="M8.31485 46.2745C6.00517 46.2745 4.04194 45.5996 2.42516 44.25C0.808388 42.9003 0 41.2614 0 39.3333V32.3921H8.31485V0L12.4723 3.47058L16.6297 0L20.7871 3.47058L24.9446 0L29.102 3.47058L33.2594 0L37.4168 3.47058L41.5743 0L45.7317 3.47058L49.8891 0V39.3333C49.8891 41.2614 49.0807 42.9003 47.4639 44.25C45.8472 45.5996 43.8839 46.2745 41.5743 46.2745H8.31485ZM41.5743 41.647C42.3595 41.647 43.0178 41.4253 43.549 40.9818C44.0803 40.5384 44.3459 39.9888 44.3459 39.3333V6.94117H13.8581V32.3921H38.8026V39.3333C38.8026 39.9888 39.0682 40.5384 39.5995 40.9818C40.1307 41.4253 40.789 41.647 41.5743 41.647ZM16.6297 16.1961V11.5686H33.2594V16.1961H16.6297ZM16.6297 23.1372V18.5098H33.2594V23.1372H16.6297ZM38.8026 16.1961C38.0173 16.1961 37.3591 15.9743 36.8279 15.5309C36.2966 15.0874 36.031 14.5379 36.031 13.8823C36.031 13.2268 36.2966 12.6773 36.8279 12.2338C37.3591 11.7903 38.0173 11.5686 38.8026 11.5686C39.5879 11.5686 40.2462 11.7903 40.7774 12.2338C41.3086 12.6773 41.5743 13.2268 41.5743 13.8823C41.5743 14.5379 41.3086 15.0874 40.7774 15.5309C40.2462 15.9743 39.5879 16.1961 38.8026 16.1961ZM38.8026 23.1372C38.0173 23.1372 37.3591 22.9155 36.8279 22.472C36.2966 22.0286 36.031 21.4791 36.031 20.8235C36.031 20.168 36.2966 19.6184 36.8279 19.175C37.3591 18.7315 38.0173 18.5098 38.8026 18.5098C39.5879 18.5098 40.2462 18.7315 40.7774 19.175C41.3086 19.6184 41.5743 20.168 41.5743 20.8235C41.5743 21.4791 41.3086 22.0286 40.7774 22.472C40.2462 22.9155 39.5879 23.1372 38.8026 23.1372ZM8.31485 41.647H33.2594V37.0196H5.54323V39.3333C5.54323 39.9888 5.80885 40.5384 6.34007 40.9818C6.8713 41.4253 7.52956 41.647 8.31485 41.647Z" fill="#850E35"/>
</svg>
