<svg width="244" height="76" viewBox="0 0 244 76" fill="none" xmlns="http://www.w3.org/2000/svg">
<g id="Group 102">
<path id="Vector" fill-rule="evenodd" clip-rule="evenodd" d="M46.228 23.1668C53.6323 22.8196 60.6663 22.2988 67.9597 22C65.8632 7.81371 58.4225 0.296387 35.921 0.296387C13.8259 0.296387 4.23184 10.7546 2.96465 20.3632C1.53876 31.1762 10.3785 38.1025 24.5114 41.8863C36.7186 45.1797 46.9487 47.4684 47.2673 52.9884C47.6104 58.925 40.245 62.2611 36.5966 62.2611C30.076 62.2611 22.9824 55.6103 22.1336 49.5145C15.0369 50.0331 7.66997 50.0609 0.573242 50.5795C0.573242 67.1386 15.1894 75.9089 34.5689 75.9089C52.6411 75.9089 70.39 68.9113 70.39 51.0159C70.39 29.289 44.8589 29.2956 28.1481 23.9446C22.3046 20.9742 25.3519 14.475 30.8517 13.9041C41.9553 12.6631 43.8616 18.4794 46.2277 23.1668H46.228ZM115.797 2.05595C130.279 2.05595 140.533 9.40326 140.533 24.2975C140.533 37.9475 130.331 46.6612 115.521 46.6612H97.025V72.7997C97.025 74.5954 97.025 74.5954 95.3027 74.5954H76.0053C73.5892 74.5954 73.5892 74.5954 73.5892 72.9245V5.15915C73.5892 2.05595 73.5892 2.05595 76.9804 2.05595H115.797ZM98.885 32.8491C97.5168 32.8491 97.025 32.3319 97.025 31.5501V17.5085C97.025 16.4788 97.9377 15.9002 98.7717 15.9002H106.879C113.858 16.8484 116.412 20.33 116.412 24.8695C116.412 31.3647 110.124 32.8491 104.662 32.8491H98.8847H98.885Z" fill="#343084"/>
<path id="Vector_2" fill-rule="evenodd" clip-rule="evenodd" d="M145.8 4.06345C145.8 3.15367 146.509 2.45741 147.291 2.45741H208.803C210.161 2.40083 210.309 2.91486 210.309 3.4013V16.3446C210.372 16.9453 209.835 17.22 209.358 17.22H170.408C169.594 17.22 169.325 17.9882 169.325 18.8274V27.5667C169.325 28.5092 170.054 29.3709 171.284 29.3709H205.747L206.534 30.095V42.2312C206.14 42.7517 205.746 43.272 205.352 43.7929H170.623C169.82 43.7929 169.324 44.2495 169.324 44.9889V56.631C169.324 57.2729 170.155 57.9877 171.127 57.9877H209.522C210.03 57.9877 210.308 58.4326 210.308 58.7115V72.8512C210.308 73.1838 209.9 73.5471 209.552 73.5471H146.428C146.093 73.5471 145.8 73.2429 145.8 72.9689V4.06373V4.06345Z" fill="#FF9400"/>
<path id="Vector_3" fill-rule="evenodd" clip-rule="evenodd" d="M243.698 42.5566V73.5471H221.794C221.459 73.5471 221.166 73.2429 221.166 72.9688V45.2831C221.166 44.5417 221.722 44.1149 222.138 44.1149H228.426C229.057 44.1149 229.216 44.6113 229.216 45.0494V57.9876C229.216 59.6221 230.704 58.9179 231.5 57.9876C235.566 52.844 239.632 47.7003 243.698 42.5566H243.698Z" fill="#343084"/>
<path id="Vector_4" fill-rule="evenodd" clip-rule="evenodd" d="M220.208 4.0621C220.208 3.15232 220.917 2.45605 221.699 2.45605H241.805C243.198 2.45605 243.697 3.24131 243.697 3.86109V30.3237L231.387 14.4611C231.121 14.118 230.512 14.1402 230.512 14.8506V26.2755C230.512 26.9117 230.171 28.1189 229.187 28.1189H221.165C220.727 28.1189 220.207 27.2105 220.207 26.6908V4.0621H220.208Z" fill="#FF9400"/>
</g>
</svg>
