<svg width="48" height="45" viewBox="0 0 48 45" fill="none" xmlns="http://www.w3.org/2000/svg">
<path id="Vector" d="M25.1537 18L21.9799 14.85L25.5504 11.25H16.0857V6.75H25.5504L21.9232 3.15L25.1537 0L34.2217 9L25.1537 18ZM13.8187 45C12.5719 45 11.5045 44.5594 10.6166 43.6781C9.72872 42.7969 9.28477 41.7375 9.28477 40.5C9.28477 39.2625 9.72872 38.2031 10.6166 37.3219C11.5045 36.4406 12.5719 36 13.8187 36C15.0656 36 16.133 36.4406 17.0209 37.3219C17.9088 38.2031 18.3527 39.2625 18.3527 40.5C18.3527 41.7375 17.9088 42.7969 17.0209 43.6781C16.133 44.5594 15.0656 45 13.8187 45ZM36.4887 45C35.2418 45 34.1744 44.5594 33.2865 43.6781C32.3986 42.7969 31.9547 41.7375 31.9547 40.5C31.9547 39.2625 32.3986 38.2031 33.2865 37.3219C34.1744 36.4406 35.2418 36 36.4887 36C37.7355 36 38.8029 36.4406 39.6908 37.3219C40.5787 38.2031 41.0227 39.2625 41.0227 40.5C41.0227 41.7375 40.5787 42.7969 39.6908 43.6781C38.8029 44.5594 37.7355 45 36.4887 45ZM0.216797 4.5V0H7.6412L17.2759 20.25H33.1449L41.9861 4.5H47.1435L37.1688 22.3875C36.7532 23.1375 36.1959 23.7188 35.4969 24.1312C34.7979 24.5437 34.0328 24.75 33.2015 24.75H16.3124L13.8187 29.25H41.0227V33.75H13.8187C12.1185 33.75 10.8244 33.0187 9.93653 31.5562C9.04862 30.0938 9.02028 28.6125 9.85151 27.1125L12.912 21.6L4.75078 4.5H0.216797Z" fill="#850E35"/>
</svg>
