<svg width="124" height="72" viewBox="0 0 124 72" fill="none" xmlns="http://www.w3.org/2000/svg">
<g id="Group 101">
<g id="Group">
<path id="Vector" d="M0.123047 5.65984C0.123047 2.70994 2.73389 0.296387 5.92492 0.296387H118.094C121.286 0.296387 123.896 2.70994 123.896 5.65984V66.4456C123.896 69.3955 121.286 71.8091 118.094 71.8091H5.92492C2.73389 71.8091 0.123047 69.3955 0.123047 66.4456V5.65984Z" fill="white"/>
<g id="Clip path group">
<mask id="mask0_323_8548" style="mask-type:luminance" maskUnits="userSpaceOnUse" x="0" y="0" width="124" height="72">
<g id="SVGID_2_">
<path id="Vector_2" d="M0.124023 5.65984C0.124023 2.70994 2.73487 0.296387 5.9259 0.296387H118.095C121.286 0.296387 123.897 2.70994 123.897 5.65984V66.4456C123.897 69.3955 121.286 71.8091 118.095 71.8091H5.9259C2.73487 71.8091 0.124023 69.3955 0.124023 66.4456V5.65984Z" fill="white"/>
</g>
</mask>
<g mask="url(#mask0_323_8548)">
<path id="Vector_3" d="M0.124023 5.65984C0.124023 2.70994 2.73487 0.296387 5.9259 0.296387H118.095C121.286 0.296387 123.897 2.70994 123.897 5.65984V66.4456C123.897 69.3955 121.286 71.8091 118.095 71.8091H5.9259C2.73487 71.8091 0.124023 69.3955 0.124023 66.4456V5.65984Z" fill="white"/>
</g>
</g>
</g>
<g id="Group_2">
<g id="Clip path group_2">
<mask id="mask1_323_8548" style="mask-type:luminance" maskUnits="userSpaceOnUse" x="5" y="57" width="114" height="11">
<g id="SVGID_4_">
<path id="Vector_4" d="M118.675 57.5068H5.24805V67.0717H118.675V57.5068Z" fill="white"/>
</g>
</mask>
<g mask="url(#mask1_323_8548)">
<path id="Vector_5" d="M123.51 53.0366H0.414062V71.5405H123.51V53.0366Z" fill="#F7B600"/>
</g>
</g>
</g>
<g id="Group_3">
<g id="Clip path group_3">
<mask id="mask2_323_8548" style="mask-type:luminance" maskUnits="userSpaceOnUse" x="5" y="5" width="114" height="10">
<g id="SVGID_6_">
<path id="Vector_6" d="M118.675 5.03467H5.24805V14.5995H118.675V5.03467Z" fill="white"/>
</g>
</mask>
<g mask="url(#mask2_323_8548)">
<path id="Vector_7" d="M123.51 0.564941H0.414062V19.0688H123.51V0.564941Z" fill="#1A1F71"/>
</g>
</g>
</g>
<g id="Group_4">
<g id="Clip path group_4">
<mask id="mask3_323_8548" style="mask-type:luminance" maskUnits="userSpaceOnUse" x="17" y="22" width="90" height="28">
<g id="SVGID_8_">
<path id="Vector_8" d="M61.5249 23.1814L55.6263 48.8365H48.4707L54.3692 23.1814H61.5249ZM91.888 39.7187L95.6592 30.0645L97.8833 39.7187H91.888ZM99.9139 48.8365H106.586L100.784 23.1814H94.5956C93.2418 23.1814 91.9847 23.8965 91.5012 25.0586L80.6711 48.8365H88.2135L89.664 44.9927H98.947L99.9139 48.8365ZM81.1546 40.4338C81.1546 33.6401 71.0013 33.2825 71.098 30.2432C71.098 29.2599 72.065 28.366 74.1923 28.0979C76.6098 27.9191 79.1239 28.2766 81.348 29.2599L82.605 23.8071C80.4777 23.0026 78.1569 22.645 75.8362 22.645C68.6805 22.645 63.7489 26.1313 63.6522 31.1371C63.5555 34.8916 67.2301 36.8582 69.9376 38.1096C72.6451 39.3611 73.7088 40.255 73.7088 41.3277C73.7088 43.0261 71.3881 43.8306 69.3574 43.8306C66.7466 43.92 64.2324 43.2943 61.9117 42.2216L60.5579 47.8532C63.072 48.8365 65.7796 49.2835 68.5838 49.1941C76.1263 49.2835 81.0579 45.7972 81.1546 40.4338ZM51.2749 23.1814L39.6712 48.8365H32.032L26.3269 28.2766C25.9401 27.0252 25.65 26.5782 24.683 26.0419C22.4589 25.0586 20.0415 24.3434 17.5273 23.8965L17.7207 23.1814H30.0014C31.6452 23.1814 33.0957 24.3434 33.2891 25.8631L36.19 40.6126L43.6358 23.092H51.2749V23.1814Z" fill="white"/>
</g>
</mask>
<g mask="url(#mask3_323_8548)">
<path id="Vector_9" d="M111.421 18.1753H12.6924V53.6635H111.421V18.1753Z" fill="#1A1F71"/>
</g>
</g>
</g>
</g>
</svg>
